<mxfile host="app.diagrams.net" agent="Mozilla/5.0 (X11; Ubuntu; Linux x86_64; rv:137.0) Gecko/20100101 Firefox/137.0" version="26.2.14">
  <diagram name="Page-1" id="6Iwwyh2GQCXEdxoH-TWM">
    <mxGraphModel dx="1410" dy="2490" grid="1" gridSize="10" guides="1" tooltips="1" connect="1" arrows="1" fold="1" page="1" pageScale="1" pageWidth="850" pageHeight="1100" math="0" shadow="0">
      <root>
        <mxCell id="0" />
        <mxCell id="1" parent="0" />
        <mxCell id="Df2__RoFyRopzwvWvyWK-4" value="" style="rounded=0;whiteSpace=wrap;html=1;" vertex="1" parent="1">
          <mxGeometry x="980" y="-190" width="1640" height="1390" as="geometry" />
        </mxCell>
        <mxCell id="yKikrTrXOIZSiHSiLoB8-1" value="user" style="swimlane;whiteSpace=wrap;html=1;fillColor=#dae8fc;strokeColor=#6c8ebf;" parent="1" vertex="1">
          <mxGeometry x="1460" y="260" width="200" height="200" as="geometry" />
        </mxCell>
        <mxCell id="yKikrTrXOIZSiHSiLoB8-74" value="&lt;br&gt;&lt;div&gt;&lt;font size=&quot;3&quot;&gt;&lt;u&gt;id&lt;/u&gt;&lt;/font&gt;&lt;/div&gt;&lt;div&gt;&lt;font size=&quot;3&quot;&gt;username&lt;/font&gt;&lt;/div&gt;&lt;div&gt;&lt;font size=&quot;3&quot;&gt;full_name&lt;/font&gt;&lt;/div&gt;&lt;div&gt;&lt;font size=&quot;3&quot;&gt;email&lt;/font&gt;&lt;/div&gt;&lt;div&gt;&lt;font size=&quot;3&quot;&gt;password_hash&lt;/font&gt;&lt;/div&gt;&lt;div&gt;&lt;font size=&quot;3&quot;&gt;bio&lt;/font&gt;&lt;/div&gt;&lt;div&gt;&lt;font size=&quot;3&quot;&gt;picture&lt;/font&gt;&lt;/div&gt;&lt;div&gt;&lt;font size=&quot;3&quot;&gt;created_at&lt;/font&gt;&lt;/div&gt;&lt;div&gt;&lt;font size=&quot;3&quot;&gt;terminated_at&lt;/font&gt;&lt;/div&gt;" style="text;html=1;align=center;verticalAlign=middle;resizable=0;points=[];autosize=1;strokeColor=none;fillColor=none;" parent="yKikrTrXOIZSiHSiLoB8-1" vertex="1">
          <mxGeometry x="30" y="5" width="140" height="200" as="geometry" />
        </mxCell>
        <mxCell id="yKikrTrXOIZSiHSiLoB8-2" value="post" style="swimlane;whiteSpace=wrap;html=1;startSize=23;fillColor=#dae8fc;strokeColor=#6c8ebf;" parent="1" vertex="1">
          <mxGeometry x="1860" y="260" width="200" height="200" as="geometry" />
        </mxCell>
        <mxCell id="yKikrTrXOIZSiHSiLoB8-55" value="" style="shape=link;html=1;rounded=0;" parent="yKikrTrXOIZSiHSiLoB8-2" edge="1">
          <mxGeometry relative="1" as="geometry">
            <mxPoint x="-60" y="39.329999999999984" as="sourcePoint" />
            <mxPoint y="40" as="targetPoint" />
          </mxGeometry>
        </mxCell>
        <mxCell id="yKikrTrXOIZSiHSiLoB8-3" value="board" style="swimlane;whiteSpace=wrap;html=1;fillColor=#dae8fc;strokeColor=#6c8ebf;" parent="1" vertex="1">
          <mxGeometry x="2260" y="260" width="200" height="200" as="geometry" />
        </mxCell>
        <mxCell id="yKikrTrXOIZSiHSiLoB8-76" value="&lt;div&gt;&lt;font style=&quot;font-size: 14px;&quot;&gt;id&lt;/font&gt;&lt;/div&gt;&lt;div&gt;&lt;font size=&quot;3&quot;&gt;board_name&lt;/font&gt;&lt;/div&gt;&lt;div&gt;&lt;font size=&quot;3&quot;&gt;description&lt;/font&gt;&lt;/div&gt;&lt;div&gt;&lt;font size=&quot;3&quot;&gt;allow_public_comments&lt;/font&gt;&lt;/div&gt;&lt;div&gt;&lt;font size=&quot;3&quot;&gt;created_at&lt;/font&gt;&lt;/div&gt;&lt;div&gt;&lt;font size=&quot;3&quot;&gt;terminated_at&lt;/font&gt;&lt;/div&gt;" style="text;html=1;align=center;verticalAlign=middle;resizable=0;points=[];autosize=1;strokeColor=none;fillColor=none;" parent="yKikrTrXOIZSiHSiLoB8-3" vertex="1">
          <mxGeometry x="5" y="35" width="190" height="130" as="geometry" />
        </mxCell>
        <mxCell id="yKikrTrXOIZSiHSiLoB8-4" value="comment" style="swimlane;whiteSpace=wrap;html=1;fillColor=#dae8fc;strokeColor=#6c8ebf;" parent="1" vertex="1">
          <mxGeometry x="1060" y="660" width="200" height="200" as="geometry" />
        </mxCell>
        <mxCell id="yKikrTrXOIZSiHSiLoB8-79" value="&lt;div&gt;&lt;font size=&quot;3&quot;&gt;id&lt;/font&gt;&lt;/div&gt;&lt;div&gt;&lt;font size=&quot;3&quot;&gt;body&lt;/font&gt;&lt;/div&gt;&lt;div&gt;&lt;font size=&quot;3&quot;&gt;created_at&lt;/font&gt;&lt;/div&gt;&lt;div&gt;&lt;font size=&quot;3&quot;&gt;deleted_at&lt;/font&gt;&lt;/div&gt;" style="text;html=1;align=center;verticalAlign=middle;resizable=0;points=[];autosize=1;strokeColor=none;fillColor=none;" parent="yKikrTrXOIZSiHSiLoB8-4" vertex="1">
          <mxGeometry x="40" y="35" width="100" height="90" as="geometry" />
        </mxCell>
        <mxCell id="yKikrTrXOIZSiHSiLoB8-5" value="friend_request" style="swimlane;whiteSpace=wrap;html=1;fillColor=#dae8fc;strokeColor=#6c8ebf;" parent="1" vertex="1">
          <mxGeometry x="1460" y="660" width="200" height="200" as="geometry" />
        </mxCell>
        <mxCell id="yKikrTrXOIZSiHSiLoB8-78" value="&lt;div&gt;&lt;br&gt;&lt;/div&gt;&lt;div&gt;&lt;br&gt;&lt;/div&gt;&lt;div&gt;&lt;font size=&quot;3&quot;&gt;id&lt;/font&gt;&lt;/div&gt;&lt;div&gt;&lt;font size=&quot;3&quot;&gt;status&lt;/font&gt;&lt;/div&gt;&lt;div&gt;&lt;font size=&quot;3&quot;&gt;created_at&lt;/font&gt;&lt;/div&gt;&lt;div&gt;&lt;font size=&quot;3&quot;&gt;terminated_at&lt;/font&gt;&lt;/div&gt;" style="text;html=1;align=center;verticalAlign=middle;resizable=0;points=[];autosize=1;strokeColor=none;fillColor=none;" parent="yKikrTrXOIZSiHSiLoB8-5" vertex="1">
          <mxGeometry x="40" y="5" width="120" height="120" as="geometry" />
        </mxCell>
        <mxCell id="yKikrTrXOIZSiHSiLoB8-6" value="pin" style="swimlane;whiteSpace=wrap;html=1;fillColor=#dae8fc;strokeColor=#6c8ebf;" parent="1" vertex="1">
          <mxGeometry x="1860" y="660" width="200" height="200" as="geometry" />
        </mxCell>
        <mxCell id="yKikrTrXOIZSiHSiLoB8-77" value="&lt;div&gt;&lt;font style=&quot;font-size: 14px;&quot;&gt;id&lt;/font&gt;&lt;/div&gt;&lt;div&gt;&lt;font style=&quot;font-size: 14px;&quot;&gt;root_pin_id&lt;/font&gt;&lt;/div&gt;&lt;div&gt;&lt;font size=&quot;3&quot;&gt;created_at&lt;/font&gt;&lt;/div&gt;&lt;div&gt;&lt;font size=&quot;3&quot;&gt;terminated_at&lt;/font&gt;&lt;/div&gt;" style="text;html=1;align=center;verticalAlign=middle;resizable=0;points=[];autosize=1;strokeColor=none;fillColor=none;" parent="yKikrTrXOIZSiHSiLoB8-6" vertex="1">
          <mxGeometry x="40" y="25" width="120" height="90" as="geometry" />
        </mxCell>
        <mxCell id="yKikrTrXOIZSiHSiLoB8-8" value="follow_stream" style="swimlane;whiteSpace=wrap;html=1;fillColor=#dae8fc;strokeColor=#6c8ebf;" parent="1" vertex="1">
          <mxGeometry x="1860" y="-140" width="200" height="200" as="geometry" />
        </mxCell>
        <mxCell id="yKikrTrXOIZSiHSiLoB8-80" value="&lt;div&gt;&lt;br&gt;&lt;/div&gt;&lt;div&gt;&lt;font size=&quot;3&quot;&gt;&lt;u&gt;id&lt;/u&gt;&lt;/font&gt;&lt;/div&gt;&lt;div&gt;&lt;font size=&quot;3&quot;&gt;stream_name&lt;/font&gt;&lt;/div&gt;&lt;div&gt;&lt;font size=&quot;3&quot;&gt;created_at&lt;/font&gt;&lt;/div&gt;&lt;div&gt;&lt;font size=&quot;3&quot;&gt;terminated_at&lt;/font&gt;&lt;/div&gt;" style="text;html=1;align=center;verticalAlign=middle;resizable=0;points=[];autosize=1;strokeColor=none;fillColor=none;" parent="yKikrTrXOIZSiHSiLoB8-8" vertex="1">
          <mxGeometry x="35" y="20" width="120" height="100" as="geometry" />
        </mxCell>
        <mxCell id="VMqlNmxj0tnxt5RM--5q-8" style="edgeStyle=orthogonalEdgeStyle;rounded=0;orthogonalLoop=1;jettySize=auto;html=1;exitX=0;exitY=0.5;exitDx=0;exitDy=0;" parent="1" source="yKikrTrXOIZSiHSiLoB8-9" edge="1">
          <mxGeometry relative="1" as="geometry">
            <mxPoint x="1660" y="299.7692307692305" as="targetPoint" />
          </mxGeometry>
        </mxCell>
        <mxCell id="yKikrTrXOIZSiHSiLoB8-9" value="ADDS" style="rhombus;whiteSpace=wrap;html=1;fillColor=#fff2cc;strokeColor=#d6b656;" parent="1" vertex="1">
          <mxGeometry x="1720" y="260" width="80" height="80" as="geometry" />
        </mxCell>
        <mxCell id="yKikrTrXOIZSiHSiLoB8-10" value="LIKES" style="rhombus;whiteSpace=wrap;html=1;fillColor=#fff2cc;strokeColor=#d6b656;" parent="1" vertex="1">
          <mxGeometry x="1720" y="380" width="80" height="80" as="geometry" />
        </mxCell>
        <mxCell id="yKikrTrXOIZSiHSiLoB8-11" value="create" style="rhombus;whiteSpace=wrap;html=1;fillColor=#fff2cc;strokeColor=#d6b656;" parent="1" vertex="1">
          <mxGeometry x="1920" y="160" width="80" height="80" as="geometry" />
        </mxCell>
        <mxCell id="yKikrTrXOIZSiHSiLoB8-24" style="edgeStyle=orthogonalEdgeStyle;rounded=0;orthogonalLoop=1;jettySize=auto;html=1;exitX=0.5;exitY=1;exitDx=0;exitDy=0;" parent="1" source="yKikrTrXOIZSiHSiLoB8-12" target="yKikrTrXOIZSiHSiLoB8-1" edge="1">
          <mxGeometry relative="1" as="geometry" />
        </mxCell>
        <mxCell id="yKikrTrXOIZSiHSiLoB8-12" value="CREATES" style="rhombus;whiteSpace=wrap;html=1;fillColor=#fff2cc;strokeColor=#d6b656;" parent="1" vertex="1">
          <mxGeometry x="1520" y="-80" width="80" height="80" as="geometry" />
        </mxCell>
        <mxCell id="yKikrTrXOIZSiHSiLoB8-13" value="follow_stream_board" style="rhombus;whiteSpace=wrap;html=1;fillColor=#fff2cc;strokeColor=#d6b656;" parent="1" vertex="1">
          <mxGeometry x="2290" y="-110" width="140" height="140" as="geometry" />
        </mxCell>
        <mxCell id="yKikrTrXOIZSiHSiLoB8-14" value="OF" style="rhombus;whiteSpace=wrap;html=1;fillColor=#fff2cc;strokeColor=#d6b656;" parent="1" vertex="1">
          <mxGeometry x="1920" y="520" width="80" height="80" as="geometry" />
        </mxCell>
        <mxCell id="VMqlNmxj0tnxt5RM--5q-11" style="edgeStyle=orthogonalEdgeStyle;rounded=0;orthogonalLoop=1;jettySize=auto;html=1;entryX=0.5;entryY=1;entryDx=0;entryDy=0;" parent="1" source="yKikrTrXOIZSiHSiLoB8-15" target="yKikrTrXOIZSiHSiLoB8-3" edge="1">
          <mxGeometry relative="1" as="geometry" />
        </mxCell>
        <mxCell id="yKikrTrXOIZSiHSiLoB8-15" value="CONTAINS" style="rhombus;whiteSpace=wrap;html=1;fillColor=#fff2cc;strokeColor=#d6b656;" parent="1" vertex="1">
          <mxGeometry x="2320" y="720" width="80" height="80" as="geometry" />
        </mxCell>
        <mxCell id="yKikrTrXOIZSiHSiLoB8-46" style="edgeStyle=orthogonalEdgeStyle;rounded=0;orthogonalLoop=1;jettySize=auto;html=1;exitX=1;exitY=0.5;exitDx=0;exitDy=0;entryX=0.5;entryY=1;entryDx=0;entryDy=0;" parent="1" source="yKikrTrXOIZSiHSiLoB8-16" target="yKikrTrXOIZSiHSiLoB8-6" edge="1">
          <mxGeometry relative="1" as="geometry" />
        </mxCell>
        <mxCell id="yKikrTrXOIZSiHSiLoB8-16" value="on" style="rhombus;whiteSpace=wrap;html=1;fillColor=#fff2cc;strokeColor=#d6b656;" parent="1" vertex="1">
          <mxGeometry x="1520" y="980" width="80" height="80" as="geometry" />
        </mxCell>
        <mxCell id="yKikrTrXOIZSiHSiLoB8-44" style="edgeStyle=orthogonalEdgeStyle;rounded=0;orthogonalLoop=1;jettySize=auto;html=1;entryX=0;entryY=0.5;entryDx=0;entryDy=0;" parent="1" source="yKikrTrXOIZSiHSiLoB8-17" target="yKikrTrXOIZSiHSiLoB8-1" edge="1">
          <mxGeometry relative="1" as="geometry" />
        </mxCell>
        <mxCell id="yKikrTrXOIZSiHSiLoB8-17" value="WROTE" style="rhombus;whiteSpace=wrap;html=1;fillColor=#fff2cc;strokeColor=#d6b656;" parent="1" vertex="1">
          <mxGeometry x="1120" y="320" width="80" height="80" as="geometry" />
        </mxCell>
        <mxCell id="yKikrTrXOIZSiHSiLoB8-41" style="edgeStyle=orthogonalEdgeStyle;rounded=0;orthogonalLoop=1;jettySize=auto;html=1;" parent="1" source="yKikrTrXOIZSiHSiLoB8-18" edge="1">
          <mxGeometry relative="1" as="geometry">
            <mxPoint x="1500" y="460" as="targetPoint" />
          </mxGeometry>
        </mxCell>
        <mxCell id="yKikrTrXOIZSiHSiLoB8-18" value="RECEIVES" style="rhombus;whiteSpace=wrap;html=1;fillColor=#fff2cc;strokeColor=#d6b656;" parent="1" vertex="1">
          <mxGeometry x="1460" y="520" width="80" height="80" as="geometry" />
        </mxCell>
        <mxCell id="yKikrTrXOIZSiHSiLoB8-38" style="edgeStyle=orthogonalEdgeStyle;rounded=0;orthogonalLoop=1;jettySize=auto;html=1;exitX=0.5;exitY=0;exitDx=0;exitDy=0;" parent="1" source="yKikrTrXOIZSiHSiLoB8-19" edge="1">
          <mxGeometry relative="1" as="geometry">
            <mxPoint x="1620.2352941176473" y="460" as="targetPoint" />
          </mxGeometry>
        </mxCell>
        <mxCell id="yKikrTrXOIZSiHSiLoB8-19" value="SENDS" style="rhombus;whiteSpace=wrap;html=1;fillColor=#fff2cc;strokeColor=#d6b656;" parent="1" vertex="1">
          <mxGeometry x="1580" y="520" width="80" height="80" as="geometry" />
        </mxCell>
        <mxCell id="yKikrTrXOIZSiHSiLoB8-20" value="friend" style="rhombus;whiteSpace=wrap;html=1;fillColor=#fff2cc;strokeColor=#d6b656;" parent="1" vertex="1">
          <mxGeometry x="1320" y="150" width="80" height="80" as="geometry" />
        </mxCell>
        <mxCell id="yKikrTrXOIZSiHSiLoB8-26" value="" style="endArrow=none;html=1;rounded=0;entryX=0.5;entryY=1;entryDx=0;entryDy=0;" parent="1" source="yKikrTrXOIZSiHSiLoB8-3" target="yKikrTrXOIZSiHSiLoB8-13" edge="1">
          <mxGeometry width="50" height="50" relative="1" as="geometry">
            <mxPoint x="2290" y="90" as="sourcePoint" />
            <mxPoint x="2340" y="40" as="targetPoint" />
          </mxGeometry>
        </mxCell>
        <mxCell id="yKikrTrXOIZSiHSiLoB8-27" style="edgeStyle=orthogonalEdgeStyle;rounded=0;orthogonalLoop=1;jettySize=auto;html=1;exitX=0;exitY=0.533;exitDx=0;exitDy=0;entryX=0.807;entryY=-0.011;entryDx=0;entryDy=0;entryPerimeter=0;exitPerimeter=0;" parent="1" source="yKikrTrXOIZSiHSiLoB8-11" edge="1">
          <mxGeometry relative="1" as="geometry">
            <mxPoint x="1915" y="202.2" as="sourcePoint" />
            <mxPoint x="1615.4" y="260.00000000000017" as="targetPoint" />
          </mxGeometry>
        </mxCell>
        <mxCell id="yKikrTrXOIZSiHSiLoB8-32" value="" style="endArrow=none;html=1;rounded=0;entryX=0;entryY=0.5;entryDx=0;entryDy=0;" parent="1" edge="1">
          <mxGeometry width="50" height="50" relative="1" as="geometry">
            <mxPoint x="1800" y="419.40999999999997" as="sourcePoint" />
            <mxPoint x="1860" y="419.40999999999997" as="targetPoint" />
          </mxGeometry>
        </mxCell>
        <mxCell id="yKikrTrXOIZSiHSiLoB8-33" value="" style="endArrow=none;html=1;rounded=0;entryX=0;entryY=0.5;entryDx=0;entryDy=0;" parent="1" edge="1">
          <mxGeometry width="50" height="50" relative="1" as="geometry">
            <mxPoint x="1660" y="420.40999999999997" as="sourcePoint" />
            <mxPoint x="1720" y="420.40999999999997" as="targetPoint" />
          </mxGeometry>
        </mxCell>
        <mxCell id="yKikrTrXOIZSiHSiLoB8-42" value="" style="endArrow=none;html=1;rounded=0;entryX=0.2;entryY=0;entryDx=0;entryDy=0;entryPerimeter=0;" parent="1" target="yKikrTrXOIZSiHSiLoB8-1" edge="1">
          <mxGeometry width="50" height="50" relative="1" as="geometry">
            <mxPoint x="1400" y="190" as="sourcePoint" />
            <mxPoint x="1450" y="140" as="targetPoint" />
            <Array as="points">
              <mxPoint x="1500" y="190" />
            </Array>
          </mxGeometry>
        </mxCell>
        <mxCell id="yKikrTrXOIZSiHSiLoB8-43" value="" style="endArrow=none;html=1;rounded=0;entryX=0.2;entryY=0;entryDx=0;entryDy=0;entryPerimeter=0;" parent="1" edge="1">
          <mxGeometry width="50" height="50" relative="1" as="geometry">
            <mxPoint x="1360" y="230" as="sourcePoint" />
            <mxPoint x="1460" y="300" as="targetPoint" />
            <Array as="points">
              <mxPoint x="1360" y="300" />
            </Array>
          </mxGeometry>
        </mxCell>
        <mxCell id="yKikrTrXOIZSiHSiLoB8-49" value="" style="shape=link;html=1;rounded=0;entryX=0;entryY=0.5;entryDx=0;entryDy=0;" parent="1" target="yKikrTrXOIZSiHSiLoB8-8" edge="1">
          <mxGeometry relative="1" as="geometry">
            <mxPoint x="1600" y="-40.670000000000016" as="sourcePoint" />
            <mxPoint x="1760" y="-40.670000000000016" as="targetPoint" />
          </mxGeometry>
        </mxCell>
        <mxCell id="yKikrTrXOIZSiHSiLoB8-51" value="" style="shape=link;html=1;rounded=0;entryX=0;entryY=0.5;entryDx=0;entryDy=0;" parent="1" target="yKikrTrXOIZSiHSiLoB8-13" edge="1">
          <mxGeometry relative="1" as="geometry">
            <mxPoint x="2060" y="-40.670000000000016" as="sourcePoint" />
            <mxPoint x="2290" y="-40" as="targetPoint" />
          </mxGeometry>
        </mxCell>
        <mxCell id="yKikrTrXOIZSiHSiLoB8-53" value="" style="shape=link;html=1;rounded=0;entryX=0.208;entryY=-0.008;entryDx=0;entryDy=0;entryPerimeter=0;" parent="1" source="yKikrTrXOIZSiHSiLoB8-11" target="yKikrTrXOIZSiHSiLoB8-3" edge="1">
          <mxGeometry relative="1" as="geometry">
            <mxPoint x="1995" y="179.32999999999998" as="sourcePoint" />
            <mxPoint x="2298" y="250" as="targetPoint" />
            <Array as="points">
              <mxPoint x="2300" y="200" />
            </Array>
          </mxGeometry>
        </mxCell>
        <mxCell id="yKikrTrXOIZSiHSiLoB8-57" value="" style="shape=link;html=1;rounded=0;entryX=0;entryY=0.5;entryDx=0;entryDy=0;" parent="1" edge="1">
          <mxGeometry relative="1" as="geometry">
            <mxPoint x="2060" y="759.33" as="sourcePoint" />
            <mxPoint x="2320" y="760" as="targetPoint" />
          </mxGeometry>
        </mxCell>
        <mxCell id="yKikrTrXOIZSiHSiLoB8-59" value="" style="shape=link;html=1;rounded=0;entryX=0.5;entryY=0;entryDx=0;entryDy=0;" parent="1" edge="1">
          <mxGeometry relative="1" as="geometry">
            <mxPoint x="1959.52" y="600" as="sourcePoint" />
            <mxPoint x="1959.52" y="660" as="targetPoint" />
          </mxGeometry>
        </mxCell>
        <mxCell id="yKikrTrXOIZSiHSiLoB8-69" value="" style="shape=link;html=1;rounded=0;entryX=0.5;entryY=0;entryDx=0;entryDy=0;" parent="1" target="yKikrTrXOIZSiHSiLoB8-4" edge="1">
          <mxGeometry relative="1" as="geometry">
            <mxPoint x="1160" y="400" as="sourcePoint" />
            <mxPoint x="1160" y="460" as="targetPoint" />
          </mxGeometry>
        </mxCell>
        <mxCell id="yKikrTrXOIZSiHSiLoB8-71" value="" style="shape=link;html=1;rounded=0;entryX=0.5;entryY=0;entryDx=0;entryDy=0;exitX=0;exitY=0.5;exitDx=0;exitDy=0;" parent="1" source="yKikrTrXOIZSiHSiLoB8-16" edge="1">
          <mxGeometry relative="1" as="geometry">
            <mxPoint x="1159.33" y="760" as="sourcePoint" />
            <mxPoint x="1159.33" y="1020" as="targetPoint" />
          </mxGeometry>
        </mxCell>
        <mxCell id="yKikrTrXOIZSiHSiLoB8-75" value="&lt;div&gt;&lt;font style=&quot;font-size: 14px;&quot;&gt;id&lt;/font&gt;&lt;/div&gt;&lt;div&gt;&lt;font style=&quot;font-size: 14px;&quot;&gt;tags&lt;/font&gt;&lt;/div&gt;&lt;div&gt;&lt;font style=&quot;font-size: 14px;&quot;&gt;image_url&lt;/font&gt;&lt;/div&gt;&lt;div&gt;&lt;font style=&quot;font-size: 14px;&quot;&gt;source_page&lt;/font&gt;&lt;/div&gt;&lt;div&gt;&lt;font style=&quot;font-size: 14px;&quot;&gt;image_blob&lt;/font&gt;&lt;/div&gt;&lt;div&gt;&lt;font style=&quot;font-size: 14px;&quot;&gt;created_at&lt;/font&gt;&lt;/div&gt;&lt;div&gt;&lt;font style=&quot;font-size: 14px;&quot;&gt;terminated_at&lt;/font&gt;&lt;/div&gt;" style="text;html=1;align=center;verticalAlign=middle;resizable=0;points=[];autosize=1;strokeColor=none;fillColor=none;" parent="1" vertex="1">
          <mxGeometry x="1900" y="298" width="110" height="130" as="geometry" />
        </mxCell>
        <mxCell id="VMqlNmxj0tnxt5RM--5q-1" value="" style="shape=link;html=1;rounded=0;entryX=0.5;entryY=0;entryDx=0;entryDy=0;" parent="1" edge="1">
          <mxGeometry relative="1" as="geometry">
            <mxPoint x="1620" y="600" as="sourcePoint" />
            <mxPoint x="1620" y="660" as="targetPoint" />
          </mxGeometry>
        </mxCell>
        <mxCell id="VMqlNmxj0tnxt5RM--5q-3" value="" style="shape=link;html=1;rounded=0;entryX=0.5;entryY=0;entryDx=0;entryDy=0;" parent="1" edge="1">
          <mxGeometry relative="1" as="geometry">
            <mxPoint x="1499.57" y="600" as="sourcePoint" />
            <mxPoint x="1499.57" y="660" as="targetPoint" />
          </mxGeometry>
        </mxCell>
        <mxCell id="VMqlNmxj0tnxt5RM--5q-5" value="" style="shape=link;html=1;rounded=0;entryX=0.5;entryY=0;entryDx=0;entryDy=0;exitX=0.5;exitY=1;exitDx=0;exitDy=0;" parent="1" source="yKikrTrXOIZSiHSiLoB8-4" edge="1">
          <mxGeometry relative="1" as="geometry">
            <mxPoint x="1159.57" y="960" as="sourcePoint" />
            <mxPoint x="1159.57" y="1020" as="targetPoint" />
          </mxGeometry>
        </mxCell>
        <mxCell id="VMqlNmxj0tnxt5RM--5q-12" value="&lt;div&gt;created_at&lt;/div&gt;terminated_at" style="rounded=0;whiteSpace=wrap;html=1;fillColor=#ffe6cc;strokeColor=#d79b00;" parent="1" vertex="1">
          <mxGeometry x="1710" y="490" width="100" height="40" as="geometry" />
        </mxCell>
        <mxCell id="VMqlNmxj0tnxt5RM--5q-13" value="" style="endArrow=none;dashed=1;html=1;rounded=0;entryX=0.5;entryY=1;entryDx=0;entryDy=0;exitX=0.5;exitY=0;exitDx=0;exitDy=0;" parent="1" source="VMqlNmxj0tnxt5RM--5q-12" target="yKikrTrXOIZSiHSiLoB8-10" edge="1">
          <mxGeometry width="50" height="50" relative="1" as="geometry">
            <mxPoint x="1900" y="420" as="sourcePoint" />
            <mxPoint x="1950" y="370" as="targetPoint" />
          </mxGeometry>
        </mxCell>
        <mxCell id="VMqlNmxj0tnxt5RM--5q-15" value="" style="endArrow=none;dashed=1;html=1;rounded=0;entryX=0;entryY=0.5;entryDx=0;entryDy=0;exitX=1;exitY=0.5;exitDx=0;exitDy=0;" parent="1" target="yKikrTrXOIZSiHSiLoB8-20" edge="1">
          <mxGeometry width="50" height="50" relative="1" as="geometry">
            <mxPoint x="1290" y="190" as="sourcePoint" />
            <mxPoint x="1298" y="140" as="targetPoint" />
          </mxGeometry>
        </mxCell>
        <mxCell id="VMqlNmxj0tnxt5RM--5q-18" value="" style="endArrow=classic;html=1;rounded=0;exitX=0.5;exitY=0;exitDx=0;exitDy=0;" parent="1" source="yKikrTrXOIZSiHSiLoB8-14" edge="1">
          <mxGeometry width="50" height="50" relative="1" as="geometry">
            <mxPoint x="1940" y="510" as="sourcePoint" />
            <mxPoint x="1960" y="460" as="targetPoint" />
          </mxGeometry>
        </mxCell>
        <mxCell id="VMqlNmxj0tnxt5RM--5q-19" value="" style="endArrow=none;html=1;rounded=0;" parent="1" edge="1">
          <mxGeometry width="50" height="50" relative="1" as="geometry">
            <mxPoint x="1963" y="522" as="sourcePoint" />
            <mxPoint x="1963" y="467" as="targetPoint" />
          </mxGeometry>
        </mxCell>
        <mxCell id="VMqlNmxj0tnxt5RM--5q-20" value="follow" style="rhombus;whiteSpace=wrap;html=1;fillColor=#fff2cc;strokeColor=#d6b656;" parent="1" vertex="1">
          <mxGeometry x="1920" y="70" width="80" height="80" as="geometry" />
        </mxCell>
        <mxCell id="VMqlNmxj0tnxt5RM--5q-22" value="" style="endArrow=none;html=1;rounded=0;entryX=0.393;entryY=-0.005;entryDx=0;entryDy=0;entryPerimeter=0;" parent="1" target="yKikrTrXOIZSiHSiLoB8-3" edge="1">
          <mxGeometry width="50" height="50" relative="1" as="geometry">
            <mxPoint x="2000" y="110" as="sourcePoint" />
            <mxPoint x="2045" y="60" as="targetPoint" />
            <Array as="points">
              <mxPoint x="2337" y="110" />
            </Array>
          </mxGeometry>
        </mxCell>
        <mxCell id="VMqlNmxj0tnxt5RM--5q-23" value="" style="endArrow=none;html=1;rounded=0;entryX=0;entryY=0.5;entryDx=0;entryDy=0;" parent="1" target="VMqlNmxj0tnxt5RM--5q-20" edge="1">
          <mxGeometry width="50" height="50" relative="1" as="geometry">
            <mxPoint x="1589" y="260" as="sourcePoint" />
            <mxPoint x="1939" y="274.5" as="targetPoint" />
            <Array as="points">
              <mxPoint x="1591" y="110" />
            </Array>
          </mxGeometry>
        </mxCell>
        <mxCell id="VMqlNmxj0tnxt5RM--5q-25" value="" style="endArrow=none;dashed=1;html=1;rounded=0;entryX=1;entryY=0.5;entryDx=0;entryDy=0;exitX=0;exitY=0.5;exitDx=0;exitDy=0;" parent="1" target="yKikrTrXOIZSiHSiLoB8-13" edge="1">
          <mxGeometry width="50" height="50" relative="1" as="geometry">
            <mxPoint x="2460" y="-40" as="sourcePoint" />
            <mxPoint x="2560" y="-40" as="targetPoint" />
          </mxGeometry>
        </mxCell>
        <mxCell id="VMqlNmxj0tnxt5RM--5q-27" value="" style="endArrow=none;dashed=1;html=1;rounded=0;entryX=0.5;entryY=0;entryDx=0;entryDy=0;" parent="1" target="VMqlNmxj0tnxt5RM--5q-20" edge="1">
          <mxGeometry width="50" height="50" relative="1" as="geometry">
            <mxPoint x="2100" y="70" as="sourcePoint" />
            <mxPoint x="1960" y="80" as="targetPoint" />
          </mxGeometry>
        </mxCell>
        <mxCell id="Df2__RoFyRopzwvWvyWK-1" value="&lt;div&gt;since&lt;/div&gt;terminated_at" style="rounded=0;whiteSpace=wrap;html=1;fillColor=#ffe6cc;strokeColor=#d79b00;" vertex="1" parent="1">
          <mxGeometry x="1190" y="170" width="100" height="40" as="geometry" />
        </mxCell>
        <mxCell id="Df2__RoFyRopzwvWvyWK-2" value="&lt;div&gt;created_at&lt;/div&gt;terminated_at" style="rounded=0;whiteSpace=wrap;html=1;fillColor=#ffe6cc;strokeColor=#d79b00;" vertex="1" parent="1">
          <mxGeometry x="2100" y="50" width="100" height="40" as="geometry" />
        </mxCell>
        <mxCell id="Df2__RoFyRopzwvWvyWK-3" value="&lt;div&gt;added_at&lt;/div&gt;deleted_at" style="rounded=0;whiteSpace=wrap;html=1;fillColor=#ffe6cc;strokeColor=#d79b00;" vertex="1" parent="1">
          <mxGeometry x="2460" y="-60" width="100" height="40" as="geometry" />
        </mxCell>
      </root>
    </mxGraphModel>
  </diagram>
</mxfile>
